<svg preserveAspectRatio="none" width="100%" height="100%" overflow="visible" style="display: block;" viewBox="0 0 24 24" fill="none" xmlns="http://www.w3.org/2000/svg">
<g id="add">
<mask id="mask0_5_8179" style="mask-type:alpha" maskUnits="userSpaceOnUse" x="0" y="0" width="24" height="24">
<rect id="Bounding box" width="24" height="24" fill="var(--fill-0, #D9D9D9)"/>
</mask>
<g mask="url(#mask0_5_8179)">
<path id="add_2" d="M11.2422 12.748H6.24219C6.02969 12.748 5.8516 12.6761 5.70794 12.5323C5.5641 12.3885 5.49219 12.2103 5.49219 11.9978C5.49219 11.7851 5.5641 11.607 5.70794 11.4635C5.8516 11.3199 6.02969 11.248 6.24219 11.248H11.2422V6.24805C11.2422 6.03555 11.3141 5.85746 11.4579 5.7138C11.6018 5.56996 11.7799 5.49805 11.9924 5.49805C12.2051 5.49805 12.3832 5.56996 12.5267 5.7138C12.6704 5.85746 12.7422 6.03555 12.7422 6.24805V11.248H17.7422C17.9547 11.248 18.1328 11.32 18.2764 11.4638C18.4203 11.6076 18.4922 11.7858 18.4922 11.9983C18.4922 12.211 18.4203 12.389 18.2764 12.5325C18.1328 12.6762 17.9547 12.748 17.7422 12.748H12.7422V17.748C12.7422 17.9605 12.6703 18.1386 12.5264 18.2823C12.3826 18.4261 12.2044 18.498 11.9919 18.498C11.7793 18.498 11.6012 18.4261 11.4577 18.2823C11.314 18.1386 11.2422 17.9605 11.2422 17.748V12.748Z" fill="var(--fill-0, black)" fill-opacity="0.5"/>
</g>
</g>
</svg>
