<svg preserveAspectRatio="none" width="100%" height="100%" overflow="visible" style="display: block;" viewBox="0 0 24 24" fill="none" xmlns="http://www.w3.org/2000/svg">
<g id="remove">
<mask id="mask0_5_8162" style="mask-type:alpha" maskUnits="userSpaceOnUse" x="0" y="0" width="24" height="24">
<rect id="Bounding box" width="24" height="24" fill="var(--fill-0, #D9D9D9)"/>
</mask>
<g mask="url(#mask0_5_8162)">
<path id="remove_2" d="M6.24219 12.75C6.02969 12.75 5.8516 12.6781 5.70794 12.5342C5.5641 12.3904 5.49219 12.2122 5.49219 11.9997C5.49219 11.7871 5.5641 11.609 5.70794 11.4655C5.8516 11.3218 6.02969 11.25 6.24219 11.25H17.7422C17.9547 11.25 18.1328 11.3219 18.2764 11.4658C18.4203 11.6096 18.4922 11.7878 18.4922 12.0003C18.4922 12.2129 18.4203 12.391 18.2764 12.5345C18.1328 12.6782 17.9547 12.75 17.7422 12.75H6.24219Z" fill="var(--fill-0, black)" fill-opacity="0.5"/>
</g>
</g>
</svg>
