<svg preserveAspectRatio="none" width="100%" height="100%" overflow="visible" style="display: block;" viewBox="0 0 24 24" fill="none" xmlns="http://www.w3.org/2000/svg">
<g id="stat_minus_1">
<mask id="mask0_5_8141" style="mask-type:alpha" maskUnits="userSpaceOnUse" x="0" y="0" width="24" height="24">
<rect id="Bounding box" width="24" height="24" fill="var(--fill-0, #D9D9D9)"/>
</mask>
<g mask="url(#mask0_5_8141)">
<path id="stat_minus_1_2" d="M11.9983 14.3731C11.8906 14.3731 11.7913 14.3555 11.7003 14.3204C11.6093 14.285 11.5201 14.2238 11.4328 14.1366L7.0445 9.74811C6.95084 9.65461 6.89984 9.54086 6.8915 9.40686C6.88317 9.27286 6.93417 9.15078 7.0445 9.04061C7.15084 8.93411 7.26875 8.88086 7.39825 8.88086C7.52775 8.88086 7.64567 8.93411 7.752 9.04061L11.9983 13.2809L16.2445 9.04061C16.338 8.94694 16.4518 8.89594 16.5858 8.88761C16.7198 8.87928 16.8418 8.93028 16.952 9.04061C17.0585 9.14694 17.1118 9.26486 17.1118 9.39436C17.1118 9.52386 17.0585 9.64178 16.952 9.74811L12.5638 14.1366C12.4764 14.2238 12.3873 14.285 12.2963 14.3204C12.2053 14.3555 12.1059 14.3731 11.9983 14.3731Z" fill="var(--fill-0, black)"/>
</g>
</g>
</svg>
