<svg preserveAspectRatio="none" width="100%" height="100%" overflow="visible" style="display: block;" viewBox="0 0 28 28" fill="none" xmlns="http://www.w3.org/2000/svg">
<g id="add">
<mask id="mask0_179_7971" style="mask-type:alpha" maskUnits="userSpaceOnUse" x="0" y="0" width="28" height="28">
<rect id="Bounding box" width="28" height="28" fill="var(--fill-0, #D9D9D9)"/>
</mask>
<g mask="url(#mask0_179_7971)">
<path id="add_2" d="M13.125 14.875H7.29167C7.04375 14.875 6.83599 14.7911 6.66838 14.6233C6.50057 14.4555 6.41667 14.2476 6.41667 13.9997C6.41667 13.7516 6.50057 13.5438 6.66838 13.3764C6.83599 13.2088 7.04375 13.125 7.29167 13.125H13.125V7.29167C13.125 7.04375 13.2089 6.83599 13.3767 6.66838C13.5445 6.50057 13.7524 6.41667 14.0003 6.41667C14.2484 6.41667 14.4562 6.50057 14.6236 6.66838C14.7912 6.83599 14.875 7.04375 14.875 7.29167V13.125H20.7083C20.9563 13.125 21.164 13.2089 21.3316 13.3767C21.4994 13.5445 21.5833 13.7524 21.5833 14.0003C21.5833 14.2484 21.4994 14.4562 21.3316 14.6236C21.164 14.7912 20.9563 14.875 20.7083 14.875H14.875V20.7083C14.875 20.9563 14.7911 21.164 14.6233 21.3316C14.4555 21.4994 14.2476 21.5833 13.9997 21.5833C13.7516 21.5833 13.5438 21.4994 13.3764 21.3316C13.2088 21.164 13.125 20.9563 13.125 20.7083V14.875Z" fill="var(--fill-0, black)" fill-opacity="0.5"/>
</g>
</g>
</svg>
