<svg preserveAspectRatio="none" width="100%" height="100%" overflow="visible" style="display: block;" viewBox="0 0 26 26" fill="none" xmlns="http://www.w3.org/2000/svg">
<g id="arrow_back">
<mask id="mask0_5_8158" style="mask-type:alpha" maskUnits="userSpaceOnUse" x="0" y="0" width="26" height="26">
<rect id="Bounding box" width="26" height="26" fill="var(--fill-0, #D9D9D9)"/>
</mask>
<g mask="url(#mask0_5_8158)">
<path id="arrow_back_2" d="M7.9872 13.8078L13.5872 19.4079C13.7483 19.5689 13.8278 19.7574 13.8258 19.9734C13.8237 20.1893 13.7386 20.3813 13.5707 20.5494C13.4026 20.7063 13.2123 20.7876 12.9998 20.7932C12.7873 20.7988 12.597 20.7175 12.4289 20.5494L5.56027 13.6808C5.45879 13.5793 5.38729 13.4724 5.34577 13.3599C5.30406 13.2474 5.2832 13.1259 5.2832 12.9953C5.2832 12.8648 5.30406 12.7433 5.34577 12.6308C5.38729 12.5183 5.45879 12.4113 5.56027 12.3099L12.4289 5.44126C12.5789 5.29121 12.7647 5.21448 12.9862 5.21105C13.2078 5.20762 13.4026 5.28435 13.5707 5.44126C13.7386 5.60935 13.8226 5.80237 13.8226 6.0203C13.8226 6.23841 13.7386 6.43151 13.5707 6.59961L7.9872 12.1828H20.3123C20.5429 12.1828 20.7359 12.2607 20.8913 12.4163C21.047 12.5718 21.1248 12.7648 21.1248 12.9953C21.1248 13.2259 21.047 13.4189 20.8913 13.5744C20.7359 13.73 20.5429 13.8078 20.3123 13.8078H7.9872Z" fill="var(--fill-0, white)"/>
</g>
</g>
</svg>
