<svg preserveAspectRatio="none" width="100%" height="100%" overflow="visible" style="display: block;" viewBox="0 0 32 32" fill="none" xmlns="http://www.w3.org/2000/svg">
<g id="logo">
<g id="Union">
<path d="M15.7536 0C15.7749 2.33516e-05 15.7896 0.0167586 15.7896 0.0378786C15.7896 0.0378786 15.8468 3.33741 15.9249 7.77997L18.2942 6.52774C18.4044 6.45372 18.4243 6.40154 18.4338 6.2522C18.4422 6.12354 18.4139 5.80561 18.4129 5.79468H18.4468L18.5453 6.57156C18.5456 6.58971 18.5374 6.59496 18.5324 6.5983C18.5194 6.60607 16.3944 7.88119 16.1947 8.01095C16.0401 8.11154 15.968 8.23845 15.9357 8.34814L15.9364 8.3526C15.9563 9.49233 15.9768 10.6994 15.999 11.9384L19.7678 9.94424C19.9427 9.82774 19.9733 9.74559 19.9887 9.50975C20.0015 9.30501 19.9566 8.79632 19.9556 8.78486H20.0074L20.1635 10.0148C20.1649 10.0411 20.1516 10.0514 20.1441 10.0564C20.124 10.0685 16.7609 12.0872 16.4472 12.2912C16.158 12.4793 16.0518 12.7263 16.0155 12.9159C16.0392 14.25 16.0624 15.6098 16.0861 16.9555L21.3485 14.1733C21.5923 14.0109 21.6352 13.895 21.6565 13.5657C21.6749 13.2776 21.6111 12.5606 21.6104 12.5534H21.6824L21.9004 14.2713C21.902 14.3093 21.8847 14.3225 21.8738 14.3292C21.8738 14.3292 17.149 17.166 16.7091 17.4524C16.2509 17.7499 16.1214 17.9718 16.1098 18.3436L16.1163 18.6689C16.1371 19.8661 16.1576 21.0376 16.1767 22.1508L23.2531 18.409C23.5796 18.1914 23.6369 18.0361 23.6646 17.595C23.6898 17.2086 23.6047 16.2459 23.6042 16.2395H23.7013L23.9934 18.5397C23.9947 18.5915 23.9711 18.6093 23.9567 18.6177C23.9567 18.6177 17.6326 22.4136 17.043 22.7977C16.364 23.2392 16.2067 23.5559 16.217 24.1457L16.2156 24.4295C16.234 25.5036 16.2515 26.491 16.2659 27.3535L24.8338 22.8237C25.2298 22.5595 25.299 22.3719 25.3339 21.8381C25.3633 21.3678 25.259 20.196 25.259 20.196H25.3763L25.7303 22.9812C25.7327 23.0437 25.7046 23.0662 25.6872 23.0762C25.6704 23.0863 18.0246 27.6744 17.3121 28.1386C16.4794 28.6793 16.312 28.718 16.312 29.7087C16.312 29.7972 16.3249 30.9001 16.3249 30.9431C16.3249 31.8065 16.9912 31.8299 16.9912 31.8299L16.989 31.9992H14.5348L14.5326 31.8299C14.5424 31.8295 15.1989 31.8 15.1989 30.9431C15.1989 30.9001 15.2147 29.7582 15.2147 29.7087C15.2147 28.718 15.047 28.6797 14.2146 28.1386C13.5041 27.6762 5.89336 23.1077 5.84099 23.0762C5.82354 23.0657 5.79401 23.0435 5.7971 22.9812L6.14966 20.196H6.26838C6.26838 20.196 6.16414 21.3685 6.19427 21.8381C6.22816 22.3719 6.29757 22.5595 6.69289 22.8237L15.2572 27.3513C15.2729 26.4146 15.2913 25.333 15.3111 24.1509V24.1457C15.32 23.5559 15.164 23.2388 14.4851 22.7977C13.8982 22.4161 7.62373 18.6495 7.57068 18.6177C7.55561 18.609 7.5326 18.5906 7.53399 18.539L7.82539 16.2403H7.92324C7.92222 16.2519 7.83763 17.2097 7.86208 17.595C7.88981 18.0361 7.9479 18.1914 8.27436 18.409L15.3442 22.1471C15.3627 21.0518 15.382 19.9028 15.4018 18.7261L15.4076 18.3793C15.4035 17.9855 15.2799 17.758 14.8082 17.4516C14.3665 17.1646 9.65564 14.3372 9.64359 14.33C9.63257 14.3231 9.61431 14.3099 9.61625 14.2713L9.83426 12.5534H9.90692C9.90606 12.5632 9.84285 13.2789 9.86087 13.5665C9.8821 13.8954 9.92498 14.0109 10.1688 14.174L15.432 16.9555C15.455 15.5935 15.4782 14.2158 15.5011 12.8661C15.4559 12.6843 15.3447 12.4632 15.0795 12.2912C14.7654 12.087 11.414 10.0755 11.3834 10.0571C11.3754 10.0523 11.3622 10.0425 11.3632 10.0148L11.5193 8.7856H11.5711C11.5699 8.79963 11.5255 9.30557 11.5388 9.50975C11.5538 9.74586 11.5835 9.82813 11.7589 9.94499L15.5169 11.9318C15.5388 10.6809 15.5589 9.46304 15.5781 8.31398L15.5774 8.31249C15.5407 8.21214 15.4695 8.10085 15.3313 8.01095C15.1326 7.88181 13.0149 6.61108 12.9936 6.5983C12.9887 6.59545 12.9803 6.58877 12.9807 6.57082L13.0792 5.79394H13.1116C13.1108 5.80337 13.0838 6.12294 13.0922 6.2522C13.1018 6.40094 13.1212 6.45328 13.231 6.52774L15.5874 7.77328C15.6627 3.33393 15.7184 0.0378786 15.7184 0.0378786C15.7184 0.0167438 15.7338 0 15.7536 0Z" fill="var(--fill-0, white)"/>
<path d="M21.4413 26.1667C21.5567 26.7661 21.4166 27.2941 20.7715 27.5689C20.5885 26.877 20.9088 26.4397 21.4413 26.1667Z" fill="var(--fill-0, white)"/>
<path d="M23.1214 25.2383C23.8614 25.2527 24.1699 25.6895 24.2381 26.2892C23.6127 26.2341 23.1508 25.9479 23.1214 25.2383Z" fill="var(--fill-0, white)"/>
<path d="M17.3653 24.8253C17.9544 24.8787 18.4075 25.1643 18.4834 25.8726C17.7886 25.8617 17.4708 25.4251 17.3653 24.8253Z" fill="var(--fill-0, white)"/>
<path d="M24.6583 24.0952C25.3746 24.2627 25.5875 24.7513 25.5375 25.3489C24.9399 25.1654 24.547 24.7912 24.6583 24.0952Z" fill="var(--fill-0, white)"/>
<path d="M20.2822 23.2998C20.8716 23.3531 21.3243 23.6381 21.4003 24.3463C20.7057 24.335 20.3873 23.8994 20.2822 23.2998Z" fill="var(--fill-0, white)"/>
<path d="M21.8867 22.5392C22.4761 22.5926 22.9285 22.8779 23.0048 23.5865C22.3102 23.5752 21.9925 23.1388 21.8867 22.5392Z" fill="var(--fill-0, white)"/>
<path d="M19.5382 21.5277C20.1276 21.581 20.5781 21.8664 20.6542 22.5719C19.9619 22.5606 19.6447 22.1267 19.5382 21.5277Z" fill="var(--fill-0, white)"/>
<path d="M23.9963 21.007C24.6193 21.0625 25.0774 21.3465 25.1065 22.0505C24.3725 22.0361 24.0658 21.6032 23.9963 21.007Z" fill="var(--fill-0, white)"/>
<path d="M23.992 19.1785C24.5813 19.2307 25.0319 19.5146 25.1079 20.2227C24.4146 20.211 24.0977 19.7757 23.992 19.1785Z" fill="var(--fill-0, white)"/>
<path d="M26.1973 18.7677C26.2701 19.3706 26.0948 19.882 25.4368 20.1083C25.303 19.4091 25.6499 18.9987 26.1973 18.7677Z" fill="var(--fill-0, white)"/>
<path d="M12.5338 17.7465C12.428 18.345 12.1102 18.779 11.4179 18.7908C11.4945 18.084 11.9452 17.7989 12.5338 17.7465Z" fill="var(--fill-0, white)"/>
<path d="M14.9284 17.6217C14.8222 18.22 14.5048 18.6542 13.8124 18.666C13.888 17.9589 14.3387 17.6738 14.9284 17.6217Z" fill="var(--fill-0, white)"/>
<path d="M25.1993 17.5059C25.0922 18.1045 24.775 18.5391 24.0826 18.5509C24.1583 17.8423 24.6092 17.5582 25.1993 17.5059Z" fill="var(--fill-0, white)"/>
<path d="M14.1477 17.0996C14.0412 17.6978 13.7237 18.1321 13.031 18.1438C13.1063 17.4367 13.5577 17.1516 14.1477 17.0996Z" fill="var(--fill-0, white)"/>
<path d="M22.3573 16.8062C22.9466 16.8585 23.3979 17.1424 23.4732 17.8505C22.7803 17.8381 22.463 17.4035 22.3573 16.8062Z" fill="var(--fill-0, white)"/>
<path d="M17.9683 16.7966C18.5567 16.8499 19.0068 17.1344 19.0835 17.8416C18.3913 17.8292 18.0744 17.3949 17.9683 16.7966Z" fill="var(--fill-0, white)"/>
<path d="M12.5338 16.1118C12.4281 16.7104 12.1103 17.1434 11.4179 17.1568C11.4939 16.4497 11.9452 16.1642 12.5338 16.1118Z" fill="var(--fill-0, white)"/>
<path d="M19.367 16.0212C19.9557 16.0745 20.4063 16.359 20.483 17.0662C19.7898 17.0535 19.4728 16.6199 19.367 16.0212Z" fill="var(--fill-0, white)"/>
<path d="M22.4033 15.7619C22.9927 15.8153 23.4437 16.0997 23.52 16.8062C22.8276 16.795 22.5098 16.3603 22.4033 15.7619Z" fill="var(--fill-0, white)"/>
<path d="M25.0295 15.7612C24.9227 16.36 24.6049 16.7928 23.9128 16.8062C23.9885 16.0977 24.4392 15.8136 25.0295 15.7612Z" fill="var(--fill-0, white)"/>
<path d="M11.7517 15.6394C11.6463 16.2378 11.3282 16.6734 10.6351 16.6851C10.7117 15.978 11.1628 15.6925 11.7517 15.6394Z" fill="var(--fill-0, white)"/>
<path d="M10.9732 15.1663C10.8664 15.7636 10.5497 16.1996 9.85656 16.2113C9.93254 15.5031 10.3829 15.2183 10.9732 15.1663Z" fill="var(--fill-0, white)"/>
<path d="M15.1773 15.0913C15.0712 15.6906 14.7537 16.1238 14.0614 16.1355C14.1371 15.4298 14.5885 15.1447 15.1773 15.0913Z" fill="var(--fill-0, white)"/>
<path d="M17.9755 14.4845C18.2482 15.0246 18.2542 15.5686 17.7114 16.0115C17.3517 15.4037 17.5402 14.8965 17.9755 14.4845Z" fill="var(--fill-0, white)"/>
<path d="M10.1883 14.6976C10.0824 15.2948 9.76527 15.7302 9.0723 15.7419C9.14827 15.0338 9.59931 14.75 10.1883 14.6976Z" fill="var(--fill-0, white)"/>
<path d="M14.3564 14.6612C14.2506 15.2586 13.9328 15.6945 13.2397 15.7062C13.316 14.999 13.7669 14.7146 14.3564 14.6612Z" fill="var(--fill-0, white)"/>
<path d="M13.5368 14.2282C13.4307 14.8266 13.1133 15.2615 12.4209 15.2732C12.4969 14.5661 12.9486 14.2816 13.5368 14.2282Z" fill="var(--fill-0, white)"/>
<path d="M19.3612 13.7306C19.6337 14.2707 19.64 14.8148 19.0972 15.2576C18.7379 14.6499 18.9257 14.1422 19.3612 13.7306Z" fill="var(--fill-0, white)"/>
<path d="M12.7166 13.7945C12.6108 14.3927 12.293 14.827 11.6006 14.8388C11.6766 14.1317 12.127 13.8479 12.7166 13.7945Z" fill="var(--fill-0, white)"/>
<path d="M11.9007 13.3593C11.7949 13.9565 11.4771 14.391 10.7847 14.4028C10.8607 13.6956 11.3113 13.4116 11.9007 13.3593Z" fill="var(--fill-0, white)"/>
<path d="M8.37437 13.2033C8.9634 13.2556 9.41498 13.5398 9.49033 14.2483C8.79737 14.2356 8.48013 13.8006 8.37437 13.2033Z" fill="var(--fill-0, white)"/>
<path d="M11.1049 12.8936C10.9991 13.4918 10.6816 13.9261 9.98895 13.9378C10.0649 13.2307 10.5156 12.947 11.1049 12.8936Z" fill="var(--fill-0, white)"/>
<path d="M23.0991 12.6708C22.994 13.2692 22.6756 13.705 21.9831 13.715C22.0592 13.0081 22.5095 12.7242 23.0991 12.6708Z" fill="var(--fill-0, white)"/>
<path d="M16.5034 12.3826C17.0924 12.4359 17.5434 12.7204 17.62 13.4276C16.9264 13.4149 16.6095 12.9813 16.5034 12.3826Z" fill="var(--fill-0, white)"/>
<path d="M15.1205 12.3373C15.015 12.9357 14.6969 13.3681 14.0038 13.3815C14.0806 12.6746 14.5316 12.3907 15.1205 12.3373Z" fill="var(--fill-0, white)"/>
<path d="M8.52691 12.159C9.11589 12.2124 9.56678 12.497 9.64286 13.2033C8.95059 13.192 8.63301 12.7574 8.52691 12.159Z" fill="var(--fill-0, white)"/>
<path d="M20.4304 12.1479C21.0198 12.2012 21.4704 12.4869 21.5464 13.1929C20.8541 13.1816 20.5362 12.7466 20.4304 12.1479Z" fill="var(--fill-0, white)"/>
<path d="M14.3261 11.8605C14.2197 12.4592 13.9026 12.893 13.2095 12.9047C13.2859 12.198 13.7368 11.9138 14.3261 11.8605Z" fill="var(--fill-0, white)"/>
<path d="M11.0812 11.8293C10.9744 12.4277 10.6569 12.8625 9.96448 12.8743C10.0411 12.1671 10.4915 11.882 11.0812 11.8293Z" fill="var(--fill-0, white)"/>
<path d="M13.5412 11.3866C13.4353 11.9838 13.1175 12.4176 12.4252 12.4294C12.5005 11.7226 12.9522 11.4387 13.5412 11.3866Z" fill="var(--fill-0, white)"/>
<path d="M9.13777 10.9098C9.67209 11.1709 9.99869 11.5986 9.82994 12.2883C9.18454 12.0303 9.0348 11.5081 9.13777 10.9098Z" fill="var(--fill-0, white)"/>
<path d="M12.7569 10.9098C12.6504 11.5081 12.3333 11.9423 11.6409 11.954C11.7163 11.247 12.1676 10.9632 12.7569 10.9098Z" fill="var(--fill-0, white)"/>
<path d="M11.9669 10.4344C11.8607 11.0326 11.5432 11.4653 10.8509 11.4787C10.9276 10.7702 11.3779 10.4865 11.9669 10.4344Z" fill="var(--fill-0, white)"/>
<path d="M15.3104 10.0727C15.2043 10.6714 14.8861 11.1053 14.1937 11.117C14.2697 10.4103 14.7208 10.1251 15.3104 10.0727Z" fill="var(--fill-0, white)"/>
<path d="M14.4895 9.63899C14.3843 10.2369 14.0665 10.6722 13.3735 10.684C13.4495 9.97584 13.9009 9.69172 14.4895 9.63899Z" fill="var(--fill-0, white)"/>
<path d="M13.6714 9.20524C13.5649 9.80399 13.2478 10.2394 12.5547 10.2495C12.6315 9.5429 13.0827 9.25858 13.6714 9.20524Z" fill="var(--fill-0, white)"/>
<path d="M21.3895 8.92375C21.2827 9.5225 20.9667 9.95701 20.2736 9.96875C20.3496 9.262 20.7999 8.97614 21.3895 8.92375Z" fill="var(--fill-0, white)"/>
<path d="M12.8475 8.75367C12.7418 9.35133 12.424 9.78544 11.7316 9.79719C11.807 9.09028 12.2587 8.80488 12.8475 8.75367Z" fill="var(--fill-0, white)"/>
<path d="M10.1962 8.71505C10.7852 8.76837 11.2364 9.05229 11.3128 9.75931C10.6199 9.74868 10.3016 9.31338 10.1962 8.71505Z" fill="var(--fill-0, white)"/>
<path d="M18.8662 7.85127C19.4391 7.98883 19.8445 8.33629 19.821 9.04258C19.1404 8.9309 18.8868 8.45592 18.8662 7.85127Z" fill="var(--fill-0, white)"/>
<path d="M14.9593 7.8483C14.8532 8.44454 14.5362 8.87952 13.8455 8.88958C13.9212 8.18331 14.3714 7.90131 14.9593 7.8483Z" fill="var(--fill-0, white)"/>
<path d="M20.8154 7.34325C20.8972 7.94409 20.7284 8.46024 20.075 8.69574C19.9309 7.99948 20.2722 7.58332 20.8154 7.34325Z" fill="var(--fill-0, white)"/>
<path d="M10.6754 7.40638C11.2367 7.59835 11.6118 7.98216 11.5265 8.68831C10.8546 8.51177 10.6432 8.01215 10.6754 7.40638Z" fill="var(--fill-0, white)"/>
<path d="M14.1758 7.38038C14.0693 7.97633 13.7523 8.40993 13.0612 8.42167C13.1373 7.71681 13.5871 7.43238 14.1758 7.38038Z" fill="var(--fill-0, white)"/>
<path d="M13.3771 6.90727C13.2713 7.50516 12.955 7.93756 12.264 7.9493C12.3394 7.24379 12.7899 6.95996 13.3771 6.90727Z" fill="var(--fill-0, white)"/>
<path d="M14.4744 5.78948C15.061 5.84283 15.5107 6.12599 15.5867 6.83003C14.8967 6.8181 14.5801 6.38578 14.4744 5.78948Z" fill="var(--fill-0, white)"/>
<path d="M16.9279 5.58078C17.5152 5.63413 17.9645 5.91729 18.0395 6.62133C17.3501 6.60975 17.0347 6.17708 16.9279 5.58078Z" fill="var(--fill-0, white)"/>
<path d="M11.733 5.36688C12.321 5.41952 12.7711 5.70372 12.8468 6.40891C12.1555 6.39628 11.8395 5.96405 11.733 5.36688Z" fill="var(--fill-0, white)"/>
<path d="M14.3722 5.28666C14.2664 5.88252 13.9509 6.31472 13.2613 6.32647C13.337 5.62272 13.786 5.34004 14.3722 5.28666Z" fill="var(--fill-0, white)"/>
<path d="M19.7275 5.10618C19.621 5.70211 19.303 6.13573 18.613 6.14747C18.6897 5.44227 19.1381 5.15818 19.7275 5.10618Z" fill="var(--fill-0, white)"/>
<path d="M14.4916 4.64347C15.0772 4.6968 15.5261 4.97938 15.6018 5.68327C14.913 5.67056 14.5967 5.23921 14.4916 4.64347Z" fill="var(--fill-0, white)"/>
<path d="M12.1647 4.32113C12.7211 4.52225 13.0882 4.91283 12.9907 5.6142C12.324 5.42715 12.122 4.92615 12.1647 4.32113Z" fill="var(--fill-0, white)"/>
<path d="M17.4617 4.40357C18.0347 4.54115 18.4394 4.88848 18.4165 5.59489C17.7359 5.48322 17.4823 5.00819 17.4617 4.40357Z" fill="var(--fill-0, white)"/>
<path d="M14.0966 4.20898C14.1249 4.81426 13.9098 5.31036 13.2404 5.48125C13.1593 4.77697 13.5347 4.3964 14.0966 4.20898Z" fill="var(--fill-0, white)"/>
<path d="M19.1929 3.67051C19.336 4.25732 19.2208 4.78687 18.5986 5.08836C18.3843 4.41382 18.6805 3.96603 19.1929 3.67051Z" fill="var(--fill-0, white)"/>
<path d="M14.5089 3.49077C15.0956 3.54412 15.5445 3.82719 15.6205 4.52983C14.9312 4.5193 14.615 4.0863 14.5089 3.49077Z" fill="var(--fill-0, white)"/>
<path d="M14.5262 2.33956C15.1121 2.39256 15.5618 2.67533 15.6371 3.37936C14.9477 3.36883 14.6316 2.93374 14.5262 2.33956Z" fill="var(--fill-0, white)"/>
<path d="M14.542 1.19503C15.1287 1.24697 15.5783 1.53076 15.6536 2.23409C14.9643 2.22287 14.6481 1.7899 14.542 1.19503Z" fill="var(--fill-0, white)"/>
<path d="M14.5593 0.0423349C15.1452 0.0942758 15.5948 0.376823 15.6709 1.0814C14.981 1.06947 14.6647 0.636732 14.5593 0.0423349Z" fill="var(--fill-0, white)"/>
</g>
</g>
</svg>
