<svg preserveAspectRatio="none" width="100%" height="100%" overflow="visible" style="display: block;" viewBox="0 0 33 33" fill="none" xmlns="http://www.w3.org/2000/svg">
<g id="lucide/message-circle">
<path id="Vector" d="M4.114 22.4702C4.31618 22.9803 4.36119 23.5391 4.24325 24.0749L2.77887 28.5986C2.73169 28.828 2.74389 29.0657 2.81432 29.2891C2.88474 29.5125 3.01106 29.7141 3.18129 29.875C3.35152 30.0359 3.56002 30.1506 3.78702 30.2083C4.01402 30.266 4.252 30.2647 4.47837 30.2046L9.17125 28.8324C9.67686 28.7321 10.2005 28.7759 10.6824 28.9589C13.6185 30.3301 16.9446 30.6202 20.0738 29.778C23.203 28.9358 25.9342 27.0155 27.7856 24.3559C29.6369 21.6962 30.4894 18.4682 30.1927 15.2413C29.8959 12.0143 28.469 8.99589 26.1636 6.71852C23.8582 4.44114 20.8226 3.05118 17.5923 2.79386C14.362 2.53654 11.1446 3.4284 8.50773 5.31209C5.87091 7.19578 3.98411 9.95024 3.18023 13.0895C2.37635 16.2288 2.70706 19.5511 4.114 22.4702Z" stroke="var(--stroke-0, black)" stroke-opacity="0.5" stroke-linecap="round" stroke-linejoin="round"/>
<g id="Frame 3353">
<rect x="22" y="2" width="10" height="10" rx="5" fill="var(--fill-0, #58C284)"/>
<rect x="22" y="2" width="10" height="10" rx="5" stroke="var(--stroke-0, white)" stroke-width="2"/>
</g>
</g>
</svg>
